{
	"asset":{
		"generator":"Khronos glTF Blender I/O v4.2.60",
		"version":"2.0"
	},
	"scene":0,
	"scenes":[
		{
			"name":"Scene",
			"nodes":[
				0,
				1,
				2,
				3
			]
		}
	],
	"nodes":[
		{
			"mesh":0,
			"name":"Curve",
			"rotation":[
				0.7071068286895752,
				0,
				0,
				0.7071068286895752
			],
			"scale":[
				134.47360229492188,
				134.47360229492188,
				134.47360229492188
			],
			"translation":[
				-0.10561878979206085,
				0.9783245921134949,
				0
			]
		},
		{
			"mesh":1,
			"name":"Curve.001",
			"rotation":[
				0.7071068286895752,
				0,
				0,
				0.7071068286895752
			],
			"scale":[
				134.47360229492188,
				134.47360229492188,
				134.47360229492188
			],
			"translation":[
				-0.03117673099040985,
				2.397191047668457,
				0
			]
		},
		{
			"mesh":2,
			"name":"Curve.002",
			"rotation":[
				0.7071068286895752,
				0,
				0,
				0.7071068286895752
			],
			"scale":[
				134.47360229492188,
				134.47360229492188,
				134.47360229492188
			],
			"translation":[
				1.499743103981018,
				2.4871604442596436,
				0
			]
		},
		{
			"mesh":3,
			"name":"Curve.003",
			"rotation":[
				0.7071068286895752,
				0,
				0,
				0.7071068286895752
			],
			"scale":[
				134.47360229492188,
				134.47360229492188,
				134.47360229492188
			],
			"translation":[
				-1.3284870386123657,
				2.5373880863189697,
				0
			]
		}
	],
	"materials":[
		{
			"doubleSided":true,
			"name":"SVGMat"
		}
	],
	"meshes":[
		{
			"name":"Curve",
			"primitives":[
				{
					"attributes":{
						"POSITION":0,
						"NORMAL":1,
						"TEXCOORD_0":2
					},
					"indices":3,
					"material":0
				}
			]
		},
		{
			"name":"Curve.001",
			"primitives":[
				{
					"attributes":{
						"POSITION":4,
						"NORMAL":5,
						"TEXCOORD_0":6
					},
					"indices":7,
					"material":0
				}
			]
		},
		{
			"name":"Curve.002",
			"primitives":[
				{
					"attributes":{
						"POSITION":8,
						"NORMAL":9,
						"TEXCOORD_0":10
					},
					"indices":11,
					"material":0
				}
			]
		},
		{
			"name":"Curve.003",
			"primitives":[
				{
					"attributes":{
						"POSITION":12,
						"NORMAL":13,
						"TEXCOORD_0":14
					},
					"indices":15,
					"material":0
				}
			]
		}
	],
	"accessors":[
		{
			"bufferView":0,
			"componentType":5126,
			"count":874,
			"max":[
				0.002894962439313531,
				0.0009000002173706889,
				0.0068245683796703815
			],
			"min":[
				-0.002894969191402197,
				-0.0009000002173706889,
				-0.006824531592428684
			],
			"type":"VEC3"
		},
		{
			"bufferView":1,
			"componentType":5126,
			"count":874,
			"type":"VEC3"
		},
		{
			"bufferView":2,
			"componentType":5126,
			"count":874,
			"type":"VEC2"
		},
		{
			"bufferView":3,
			"componentType":5123,
			"count":4380,
			"type":"SCALAR"
		},
		{
			"bufferView":4,
			"componentType":5126,
			"count":589,
			"max":[
				0.00449679559096694,
				0.0009000002173706889,
				0.004002377390861511
			],
			"min":[
				-0.0056311702355742455,
				-0.0009000002173706889,
				-0.006152013316750526
			],
			"type":"VEC3"
		},
		{
			"bufferView":5,
			"componentType":5126,
			"count":589,
			"type":"VEC3"
		},
		{
			"bufferView":6,
			"componentType":5126,
			"count":589,
			"type":"VEC2"
		},
		{
			"bufferView":7,
			"componentType":5123,
			"count":2724,
			"type":"SCALAR"
		},
		{
			"bufferView":8,
			"componentType":5126,
			"count":1026,
			"max":[
				0.004610469564795494,
				0.0009000002173706889,
				0.002448632614687085
			],
			"min":[
				-0.0071349372155964375,
				-0.0009000002173706889,
				-0.005480146501213312
			],
			"type":"VEC3"
		},
		{
			"bufferView":9,
			"componentType":5126,
			"count":1026,
			"type":"VEC3"
		},
		{
			"bufferView":10,
			"componentType":5126,
			"count":1026,
			"type":"VEC2"
		},
		{
			"bufferView":11,
			"componentType":5123,
			"count":4524,
			"type":"SCALAR"
		},
		{
			"bufferView":12,
			"componentType":5126,
			"count":713,
			"max":[
				0.004296201281249523,
				0.0008999999845400453,
				0.002819972112774849
			],
			"min":[
				-0.007372086867690086,
				-0.0008999999845400453,
				-0.00511227548122406
			],
			"type":"VEC3"
		},
		{
			"bufferView":13,
			"componentType":5126,
			"count":713,
			"type":"VEC3"
		},
		{
			"bufferView":14,
			"componentType":5126,
			"count":713,
			"type":"VEC2"
		},
		{
			"bufferView":15,
			"componentType":5123,
			"count":2868,
			"type":"SCALAR"
		}
	],
	"bufferViews":[
		{
			"buffer":0,
			"byteLength":10488,
			"byteOffset":0,
			"target":34962
		},
		{
			"buffer":0,
			"byteLength":10488,
			"byteOffset":10488,
			"target":34962
		},
		{
			"buffer":0,
			"byteLength":6992,
			"byteOffset":20976,
			"target":34962
		},
		{
			"buffer":0,
			"byteLength":8760,
			"byteOffset":27968,
			"target":34963
		},
		{
			"buffer":0,
			"byteLength":7068,
			"byteOffset":36728,
			"target":34962
		},
		{
			"buffer":0,
			"byteLength":7068,
			"byteOffset":43796,
			"target":34962
		},
		{
			"buffer":0,
			"byteLength":4712,
			"byteOffset":50864,
			"target":34962
		},
		{
			"buffer":0,
			"byteLength":5448,
			"byteOffset":55576,
			"target":34963
		},
		{
			"buffer":0,
			"byteLength":12312,
			"byteOffset":61024,
			"target":34962
		},
		{
			"buffer":0,
			"byteLength":12312,
			"byteOffset":73336,
			"target":34962
		},
		{
			"buffer":0,
			"byteLength":8208,
			"byteOffset":85648,
			"target":34962
		},
		{
			"buffer":0,
			"byteLength":9048,
			"byteOffset":93856,
			"target":34963
		},
		{
			"buffer":0,
			"byteLength":8556,
			"byteOffset":102904,
			"target":34962
		},
		{
			"buffer":0,
			"byteLength":8556,
			"byteOffset":111460,
			"target":34962
		},
		{
			"buffer":0,
			"byteLength":5704,
			"byteOffset":120016,
			"target":34962
		},
		{
			"buffer":0,
			"byteLength":5736,
			"byteOffset":125720,
			"target":34963
		}
	],
	"buffers":[
		{
			"byteLength":131456,
			"uri":"22222.bin"
		}
	]
}
